<?xml version="1.0" encoding="UTF-8"?>
<svg id="Layer_1" data-name="Layer 1" xmlns="http://www.w3.org/2000/svg" viewBox="0 0 1883.6 698.5">
  <defs>
    <style>
      .cls-1 {
        fill: #1bc0be;
      }

      .cls-2 {
        fill: #212856;
      }

      .cls-3 {
        fill: #68eae0;
      }

      .cls-4 {
        fill: #4960b2;
      }
    </style>
  </defs>
  <g>
    <g>
      <g>
        <polygon class="cls-2" points="1446.19 553.57 1446.85 554.03 1446.63 554.19 1446.19 553.57"/>
        <polygon class="cls-1" points="1883.6 144.33 1883.6 251.38 1447.53 553.57 1446.85 554.03 1446.85 447.01 1883.6 144.33"/>
      </g>
      <polygon class="cls-2" points="1447.53 553.57 1447.09 554.19 1446.85 554.03 1447.53 553.57"/>
    </g>
    <path class="cls-2" d="M1883.6,288.66l-436.75,302.65v106.99l-.66-.44.44.63.22-.14.03-.03.22.16.44-.63,271.03-187.8v144.24l165.03-114.38v-144.23h.01v-107.03ZM1743.35,530.11v-37.22l.04-.03,115.28-79.88.13-.09v37.22l-.14.1-115.31,79.91Z"/>
    <polygon class="cls-1" points="1883.59 0 1883.59 107.02 1718.56 221.4 1718.56 114.36 1883.59 0"/>
    <polygon class="cls-3" points="1446.85 447.01 1446.85 554.03 1446.19 553.57 1330.58 473.46 1330.58 366.44 1446.85 447.01"/>
    <polygon class="cls-4" points="1446.85 591.31 1446.85 698.31 1446.19 697.87 1330.58 617.77 1330.58 510.75 1446.85 591.31"/>
  </g>
  <g>
    <g>
      <path class="cls-2" d="M1.64,588.52c-1.39-4.07-1.64-7.36-1.64-16.11s.26-11.96,1.64-16.11c3.12-9.45,11-14.3,21.49-14.3s18.37,4.85,21.49,14.3c1.39,4.16,1.65,7.36,1.65,16.11s-.26,12.04-1.65,16.11c-3.21,9.79-11,14.3-21.49,14.3s-18.28-4.51-21.49-14.3ZM32.4,585.05c.69-2.08.95-4.94.95-12.65s-.26-10.57-.95-12.65c-1.3-4.07-4.42-6.5-9.27-6.5s-7.97,2.43-9.27,6.5c-.69,2.08-.95,4.94-.95,12.65s.26,10.57.95,12.65c1.3,4.07,4.42,6.5,9.27,6.5s7.97-2.43,9.27-6.5Z"/>
      <path class="cls-2" d="M56.65,601.86c-.61,0-.87-.26-.87-.87v-40.2c0-.61.26-.87.87-.87h10.4c.61,0,.87.26.87.87v3.55h.09c1.99-3.38,5.72-5.37,10.92-5.37,2.77,0,5.55.87,7.36,2.51.43.35.52.78.26,1.21l-4.85,8.84c-.26.43-.61.43-1.21.17-2.25-1.3-4.25-1.99-6.07-1.91-4.5.26-6.5,3.47-6.5,9.1v22.09c0,.61-.26.87-.87.87h-10.4Z"/>
      <path class="cls-2" d="M92.08,612.09c-.35-.43-.35-.87.09-1.3l6.15-6.24c.43-.43.87-.43,1.3,0,2.68,2.34,5.28,3.64,8.66,3.64,5.89,0,8.4-3.03,8.4-9.27v-3.55h-.09c-1.82,3.03-5.46,4.85-10.74,4.85-6.93,0-11.87-3.47-14.04-10.14-.95-3.12-1.39-5.98-1.39-10.48s.43-7.45,1.39-10.49c2.17-6.67,7.11-10.14,14.04-10.14,5.28,0,8.92,1.82,10.74,4.85h.09v-3.03c0-.61.26-.87.87-.87h10.4c.61,0,.87.26.87.87v36.56c0,14.04-6.93,21.05-20.88,21.05-6.24,0-12.82-2.6-15.86-6.33ZM115.91,585.49c.61-1.65.78-3.21.78-5.89s-.17-4.25-.78-5.89c-1.04-3.03-2.86-4.51-6.24-4.51-3.12,0-5.2,1.47-6.24,4.51-.61,1.64-.69,3.21-.69,5.89s.09,4.25.69,5.89c1.04,3.03,3.12,4.51,6.24,4.51,3.38,0,5.2-1.47,6.24-4.51Z"/>
      <path class="cls-2" d="M164.33,601.86c-.61,0-.87-.26-.87-.87v-2.77h-.09c-2.17,2.77-5.63,4.59-11.52,4.59-7.45,0-13.95-3.81-13.95-12.82s7.02-13.52,17.41-13.52h7.45c.35,0,.52-.17.52-.52v-1.56c0-3.9-1.91-5.72-8.58-5.72-4.25,0-7.36,1.21-9.36,2.69-.43.35-.87.26-1.13-.17l-3.9-6.84c-.26-.52-.17-.95.26-1.21,3.55-2.51,8.66-4.16,15.6-4.16,13.6,0,18.63,4.77,18.63,15.16v26.86c0,.61-.26.87-.87.87h-9.62ZM163.29,587.92v-2.86c0-.34-.17-.52-.52-.52h-5.89c-4.94,0-7.45,1.56-7.45,4.77,0,2.94,1.99,4.42,6.06,4.42,5.2,0,7.8-1.91,7.8-5.81Z"/>
      <path class="cls-2" d="M211.54,601.86c-.61,0-.87-.26-.87-.87v-24.09c0-4.59-2.08-7.62-6.5-7.62-4.16,0-6.58,3.03-6.58,7.62v24.09c0,.61-.26.87-.87.87h-10.4c-.61,0-.87-.26-.87-.87v-40.2c0-.61.26-.87.87-.87h10.4c.61,0,.87.26.87.87v2.95h.09c1.99-2.69,5.28-4.77,10.83-4.77,9.36,0,14.3,6.33,14.3,15.6v26.43c0,.61-.26.87-.87.87h-10.4Z"/>
      <path class="cls-2" d="M234.23,553.26c-.61,0-.87-.26-.87-.87v-8.58c0-.61.26-.87.87-.87h10.4c.61,0,.87.26.87.87v8.58c0,.61-.26.87-.87.87h-10.4ZM234.23,601.86c-.61,0-.87-.26-.87-.87v-40.2c0-.61.26-.87.87-.87h10.4c.61,0,.87.26.87.87v40.2c0,.61-.26.87-.87.87h-10.4Z"/>
      <path class="cls-2" d="M255.28,601.86c-.61,0-.87-.26-.87-.87v-7.8c0-.26.09-.61.26-.87l19.93-22.27v-.17h-18.2c-.61,0-.87-.26-.87-.87v-8.23c0-.61.26-.87.87-.87h31.63c.61,0,.87.26.87.87v8.23c0,.35-.09.61-.26.87l-19.75,21.83v.17h19.15c.61,0,.87.26.87.87v8.23c0,.61-.26.87-.87.87h-32.75Z"/>
      <path class="cls-2" d="M322.94,601.86c-.61,0-.87-.26-.87-.87v-2.77h-.09c-2.17,2.77-5.63,4.59-11.52,4.59-7.45,0-13.95-3.81-13.95-12.82s7.02-13.52,17.41-13.52h7.45c.35,0,.52-.17.52-.52v-1.56c0-3.9-1.91-5.72-8.58-5.72-4.25,0-7.36,1.21-9.36,2.69-.43.35-.87.26-1.13-.17l-3.9-6.84c-.26-.52-.17-.95.26-1.21,3.55-2.51,8.66-4.16,15.6-4.16,13.6,0,18.63,4.77,18.63,15.16v26.86c0,.61-.26.87-.87.87h-9.62ZM321.9,587.92v-2.86c0-.34-.17-.52-.52-.52h-5.89c-4.94,0-7.45,1.56-7.45,4.77,0,2.94,1.99,4.42,6.06,4.42,5.2,0,7.8-1.91,7.8-5.81Z"/>
      <path class="cls-2" d="M358.28,602.38c-9.7,0-13.34-4.33-13.34-13.95v-19.06c0-.35-.17-.52-.52-.52h-2.6c-.61,0-.87-.26-.87-.87v-7.19c0-.61.26-.87.87-.87h2.6c.35,0,.52-.17.52-.52v-11.26c0-.61.26-.87.87-.87h10.31c.61,0,.87.26.87.87v11.26c0,.35.17.52.52.52h5.37c.61,0,.87.26.87.87v7.19c0,.61-.26.87-.87.87h-5.37c-.34,0-.52.17-.52.52v18.54c0,3.12,1.04,4.16,3.81,4.16h2.08c.61,0,.87.26.87.87v8.58c0,.61-.26.87-.87.87h-4.59Z"/>
      <path class="cls-2" d="M373.61,553.26c-.61,0-.87-.26-.87-.87v-8.58c0-.61.26-.87.87-.87h10.4c.61,0,.87.26.87.87v8.58c0,.61-.26.87-.87.87h-10.4ZM373.61,601.86c-.61,0-.87-.26-.87-.87v-40.2c0-.61.26-.87.87-.87h10.4c.61,0,.87.26.87.87v40.2c0,.61-.26.87-.87.87h-10.4Z"/>
      <path class="cls-2" d="M395.09,591.03c-.95-3.03-1.39-5.98-1.39-10.14s.43-7.1,1.39-10.14c2.43-7.62,9.18-11.78,18.19-11.78s15.77,4.16,18.2,11.78c.95,3.03,1.39,5.98,1.39,10.14s-.43,7.11-1.39,10.14c-2.43,7.62-9.19,11.78-18.2,11.78s-15.77-4.16-18.19-11.78ZM419.79,588.09c.61-1.99.78-3.64.78-7.19s-.17-5.2-.78-7.19c-.95-3.03-3.12-4.51-6.5-4.51s-5.55,1.47-6.5,4.51c-.61,1.99-.78,3.64-.78,7.19s.17,5.2.78,7.19c.95,3.03,3.12,4.51,6.5,4.51s5.55-1.47,6.5-4.51Z"/>
      <path class="cls-2" d="M467.78,601.86c-.61,0-.87-.26-.87-.87v-24.09c0-4.59-2.08-7.62-6.5-7.62-4.16,0-6.58,3.03-6.58,7.62v24.09c0,.61-.26.87-.87.87h-10.4c-.61,0-.87-.26-.87-.87v-40.2c0-.61.26-.87.87-.87h10.4c.61,0,.87.26.87.87v2.95h.09c1.99-2.69,5.28-4.77,10.83-4.77,9.36,0,14.3,6.33,14.3,15.6v26.43c0,.61-.26.87-.87.87h-10.4Z"/>
      <path class="cls-2" d="M510.22,543.81c0-.61.26-.87.87-.87h37.78c.61,0,.87.26.87.87v9.27c0,.61-.26.87-.87.87h-25.39c-.35,0-.52.17-.52.52v11.7c0,.35.17.52.52.52h21.14c.61,0,.87.26.87.87v9.18c0,.61-.26.87-.87.87h-21.14c-.35,0-.52.17-.52.52v12.22c0,.35.17.52.52.52h25.39c.61,0,.87.26.87.87v9.27c0,.61-.26.87-.87.87h-37.78c-.61,0-.87-.26-.87-.87v-57.18Z"/>
      <path class="cls-2" d="M583.08,601.86c-.52,0-.95-.26-1.3-.78l-7.54-11.44h-.09l-7.45,11.44c-.43.52-.95.78-1.39.78h-11.18c-.69,0-.87-.43-.61-.87l14.12-20.88-13.08-19.32c-.26-.43-.09-.87.61-.87h11.26c.61,0,1.13.26,1.47.78l6.32,9.88h.09l6.41-9.88c.43-.52.87-.78,1.39-.78h11.18c.78,0,.95.43.69.87l-13.08,19.32,14.12,20.88c.26.43.09.87-.69.87h-11.26Z"/>
      <path class="cls-2" d="M601.26,590.95c-.87-2.51-1.3-5.63-1.3-10.05s.43-7.54,1.3-10.05c2.86-7.97,9.1-11.87,18.11-11.87,7.28,0,12.82,3.29,15.86,7.89.26.43.26.87-.17,1.21l-7.54,4.94c-.52.35-.95.26-1.3-.17-1.82-2.51-3.64-3.64-6.67-3.64-3.21,0-5.55,1.47-6.5,4.51-.61,1.73-.78,3.72-.78,7.19s.17,5.46.78,7.19c.95,3.03,3.29,4.51,6.5,4.51,3.03,0,4.85-1.13,6.67-3.64.34-.43.78-.52,1.3-.17l7.54,4.94c.43.34.43.78.17,1.21-3.03,4.59-8.58,7.89-15.86,7.89-9.01,0-15.25-3.9-18.11-11.87Z"/>
      <path class="cls-2" d="M643.1,590.86c-.95-2.68-1.47-5.55-1.47-9.96s.43-7.36,1.39-10.05c2.68-7.62,9.01-11.87,18.02-11.87s15.68,4.42,18.11,11.78c.95,2.86,1.39,5.81,1.39,12.91,0,.61-.35.87-.95.87h-25.39c-.35,0-.52.17-.52.52.09.87.26,1.65.52,2.34,1.13,3.73,4.25,5.55,8.66,5.55,4.16,0,7.19-1.39,9.62-3.73.52-.43.95-.43,1.21,0l5.72,5.37c.43.43.43.87.09,1.21-4.07,4.25-10.14,7.02-17.85,7.02-9.79,0-15.85-4.33-18.54-11.96ZM668.05,576.48c.35,0,.52-.17.52-.52,0-1.3-.17-2.17-.43-3.12-.95-2.86-3.55-4.59-7.02-4.59s-6.06,1.73-7.02,4.59c-.26.95-.43,1.82-.43,3.12,0,.35.17.52.52.52h13.86Z"/>
      <path class="cls-2" d="M702.18,602.38c-9.36,0-13-3.98-13-13.34v-45.23c0-.61.26-.87.87-.87h10.4c.61,0,.87.26.87.87v44.27c0,2.86,1.13,3.99,3.64,3.99h1.82c.61,0,.87.26.87.87v8.58c0,.61-.26.87-.87.87h-4.59Z"/>
      <path class="cls-2" d="M728.51,602.38c-9.36,0-13-3.98-13-13.34v-45.23c0-.61.26-.87.87-.87h10.4c.61,0,.87.26.87.87v44.27c0,2.86,1.13,3.99,3.64,3.99h1.82c.61,0,.87.26.87.87v8.58c0,.61-.26.87-.87.87h-4.59Z"/>
      <path class="cls-2" d="M741.42,590.86c-.95-2.68-1.47-5.55-1.47-9.96s.43-7.36,1.39-10.05c2.68-7.62,9.01-11.87,18.02-11.87s15.68,4.42,18.11,11.78c.95,2.86,1.39,5.81,1.39,12.91,0,.61-.35.87-.95.87h-25.39c-.35,0-.52.17-.52.52.09.87.26,1.65.52,2.34,1.13,3.73,4.25,5.55,8.66,5.55,4.16,0,7.19-1.39,9.62-3.73.52-.43.95-.43,1.21,0l5.72,5.37c.43.43.43.87.09,1.21-4.07,4.25-10.14,7.02-17.85,7.02-9.79,0-15.85-4.33-18.54-11.96ZM766.37,576.48c.35,0,.52-.17.52-.52,0-1.3-.17-2.17-.43-3.12-.95-2.86-3.55-4.59-7.02-4.59s-6.06,1.73-7.02,4.59c-.26.95-.43,1.82-.43,3.12,0,.35.17.52.52.52h13.86Z"/>
      <path class="cls-2" d="M813.76,601.86c-.61,0-.87-.26-.87-.87v-24.09c0-4.59-2.08-7.62-6.5-7.62-4.16,0-6.58,3.03-6.58,7.62v24.09c0,.61-.26.87-.87.87h-10.4c-.61,0-.87-.26-.87-.87v-40.2c0-.61.26-.87.87-.87h10.4c.61,0,.87.26.87.87v2.95h.09c1.99-2.69,5.28-4.77,10.83-4.77,9.36,0,14.3,6.33,14.3,15.6v26.43c0,.61-.26.87-.87.87h-10.4Z"/>
      <path class="cls-2" d="M834.8,590.95c-.87-2.51-1.3-5.63-1.3-10.05s.43-7.54,1.3-10.05c2.86-7.97,9.1-11.87,18.11-11.87,7.28,0,12.82,3.29,15.85,7.89.26.43.26.87-.17,1.21l-7.54,4.94c-.52.35-.95.26-1.3-.17-1.82-2.51-3.64-3.64-6.67-3.64-3.21,0-5.55,1.47-6.5,4.51-.61,1.73-.78,3.72-.78,7.19s.17,5.46.78,7.19c.95,3.03,3.29,4.51,6.5,4.51,3.03,0,4.85-1.13,6.67-3.64.35-.43.78-.52,1.3-.17l7.54,4.94c.43.34.43.78.17,1.21-3.03,4.59-8.58,7.89-15.85,7.89-9.01,0-15.25-3.9-18.11-11.87Z"/>
      <path class="cls-2" d="M876.64,590.86c-.95-2.68-1.47-5.55-1.47-9.96s.43-7.36,1.39-10.05c2.69-7.62,9.01-11.87,18.02-11.87s15.68,4.42,18.11,11.78c.95,2.86,1.39,5.81,1.39,12.91,0,.61-.35.87-.95.87h-25.39c-.35,0-.52.17-.52.52.09.87.26,1.65.52,2.34,1.13,3.73,4.25,5.55,8.66,5.55,4.16,0,7.19-1.39,9.62-3.73.52-.43.95-.43,1.21,0l5.72,5.37c.43.43.43.87.09,1.21-4.07,4.25-10.14,7.02-17.85,7.02-9.79,0-15.86-4.33-18.54-11.96ZM901.59,576.48c.35,0,.52-.17.52-.52,0-1.3-.17-2.17-.43-3.12-.95-2.86-3.55-4.59-7.02-4.59s-6.07,1.73-7.02,4.59c-.26.95-.43,1.82-.43,3.12,0,.35.17.52.52.52h13.86Z"/>
      <path class="cls-2" d="M940.65,594.76c-.43-.43-.52-.95-.09-1.47l6.58-7.54c.35-.43.78-.52,1.3-.09,3.9,3.12,9.19,6.07,15.42,6.07s9.62-2.86,9.62-7.02c0-3.47-2.08-5.63-9.1-6.59l-3.12-.43c-12.22-1.73-18.63-7.19-18.63-17.68s8.14-18.02,20.88-18.02c7.97,0,15.08,2.34,20.02,6.15.52.35.61.78.17,1.3l-5.28,7.88c-.35.43-.78.52-1.21.26-4.51-3.03-8.84-4.51-13.69-4.51-5.2,0-7.89,2.69-7.89,6.41,0,3.38,2.25,5.55,9.19,6.5l3.12.43c12.22,1.73,18.54,7.02,18.54,17.85s-7.88,18.54-23.13,18.54c-9.27,0-18.11-3.64-22.7-8.06Z"/>
      <path class="cls-2" d="M994.19,591.03c-.95-3.03-1.39-5.98-1.39-10.14s.43-7.1,1.39-10.14c2.43-7.62,9.18-11.78,18.19-11.78s15.77,4.16,18.2,11.78c.95,3.03,1.39,5.98,1.39,10.14s-.43,7.11-1.39,10.14c-2.43,7.62-9.19,11.78-18.2,11.78s-15.77-4.16-18.19-11.78ZM1018.88,588.09c.61-1.99.78-3.64.78-7.19s-.17-5.2-.78-7.19c-.95-3.03-3.12-4.51-6.5-4.51s-5.55,1.47-6.5,4.51c-.61,1.99-.78,3.64-.78,7.19s.17,5.2.78,7.19c.95,3.03,3.12,4.51,6.5,4.51s5.55-1.47,6.5-4.51Z"/>
      <path class="cls-2" d="M1040.01,590.95c-.87-2.51-1.3-5.63-1.3-10.05s.43-7.54,1.3-10.05c2.86-7.97,9.1-11.87,18.11-11.87,7.28,0,12.82,3.29,15.86,7.89.26.43.26.87-.17,1.21l-7.54,4.94c-.52.35-.95.26-1.3-.17-1.82-2.51-3.64-3.64-6.67-3.64-3.21,0-5.55,1.47-6.5,4.51-.61,1.73-.78,3.72-.78,7.19s.17,5.46.78,7.19c.95,3.03,3.29,4.51,6.5,4.51,3.03,0,4.85-1.13,6.67-3.64.34-.43.78-.52,1.3-.17l7.54,4.94c.43.34.43.78.17,1.21-3.03,4.59-8.58,7.89-15.86,7.89-9.01,0-15.25-3.9-18.11-11.87Z"/>
      <path class="cls-2" d="M1083.33,553.26c-.61,0-.87-.26-.87-.87v-8.58c0-.61.26-.87.87-.87h10.4c.61,0,.87.26.87.87v8.58c0,.61-.26.87-.87.87h-10.4ZM1083.33,601.86c-.61,0-.87-.26-.87-.87v-40.2c0-.61.26-.87.87-.87h10.4c.61,0,.87.26.87.87v40.2c0,.61-.26.87-.87.87h-10.4Z"/>
      <path class="cls-2" d="M1104.89,590.86c-.95-2.68-1.47-5.55-1.47-9.96s.43-7.36,1.39-10.05c2.68-7.62,9.01-11.87,18.02-11.87s15.68,4.42,18.11,11.78c.95,2.86,1.39,5.81,1.39,12.91,0,.61-.35.87-.95.87h-25.39c-.35,0-.52.17-.52.52.09.87.26,1.65.52,2.34,1.13,3.73,4.25,5.55,8.66,5.55,4.16,0,7.19-1.39,9.62-3.73.52-.43.95-.43,1.21,0l5.72,5.37c.43.43.43.87.09,1.21-4.07,4.25-10.14,7.02-17.85,7.02-9.79,0-15.85-4.33-18.54-11.96ZM1129.85,576.48c.35,0,.52-.17.52-.52,0-1.3-.17-2.17-.43-3.12-.95-2.86-3.55-4.59-7.02-4.59s-6.06,1.73-7.02,4.59c-.26.95-.43,1.82-.43,3.12,0,.35.17.52.52.52h13.86Z"/>
      <path class="cls-2" d="M1165.36,602.38c-9.7,0-13.34-4.33-13.34-13.95v-19.06c0-.35-.17-.52-.52-.52h-2.6c-.61,0-.87-.26-.87-.87v-7.19c0-.61.26-.87.87-.87h2.6c.35,0,.52-.17.52-.52v-11.26c0-.61.26-.87.87-.87h10.31c.61,0,.87.26.87.87v11.26c0,.35.17.52.52.52h5.37c.61,0,.87.26.87.87v7.19c0,.61-.26.87-.87.87h-5.37c-.35,0-.52.17-.52.52v18.54c0,3.12,1.04,4.16,3.81,4.16h2.08c.61,0,.87.26.87.87v8.58c0,.61-.26.87-.87.87h-4.59Z"/>
      <path class="cls-2" d="M1182.42,617.46c-.61,0-.87-.26-.87-.87v-8.49c0-.61.26-.87.87-.87h1.82c3.03,0,4.59-1.21,5.72-4.33l1.13-3.12-15.6-38.99c-.17-.61.09-.87.69-.87h11.09c.52,0,.87.26,1.04.87l8.41,24.26h.17l7.8-24.26c.17-.61.52-.87,1.04-.87h10.74c.69,0,.95.26.69.87l-16.98,44.62c-3.55,9.36-7.28,12.04-14.82,12.04h-2.95Z"/>
    </g>
    <g>
      <g>
        <rect class="cls-2" x="16.14" y="155.97" width="22.06" height="19.3"/>
        <rect class="cls-2" x="46.77" y="155.97" width="22.06" height="19.3"/>
        <rect class="cls-2" x="148.18" y="277.75" width="22.06" height="19.3"/>
        <rect class="cls-2" x="117.54" y="277.75" width="22.06" height="19.3"/>
        <path class="cls-2" d="M195.21,245.89h-15.32c-5.93,0-10.32-.43-13.17-1.3-2.86-.87-5.41-2.53-7.66-4.98.51-2.76.77-5.41.77-7.97v-44.88h-21.45v41.51c0,5.31-1.45,9.57-4.36,12.79-2.91,3.22-6.41,4.82-10.49,4.82h-39.21c-3.88,0-6.82-1.1-8.81-3.29-1.99-2.19-2.99-5.95-2.99-11.26l.15-41.51c-13.28-2.04-23.44-3.06-30.48-3.06-8.27,0-15.55,1.68-21.83,5.06-6.28,3.37-11.16,8.04-14.63,14.02-3.47,5.97-5.21,12.64-5.21,19.99s1.63,14.4,4.9,20.22c3.27,5.82,7.76,10.32,13.48,13.48,5.72,3.17,12.1,4.75,19.15,4.75h3.06l8.27-18.38h-7.97c-6.03,0-10.65-1.76-13.86-5.28-3.22-3.52-4.82-8.35-4.82-14.48,0-13.99,6.23-20.99,18.69-20.99,2.86,0,6.08.36,9.65,1.07v28.49c0,9.09,2.3,16.29,6.89,21.6,4.6,5.31,11.23,7.97,19.92,7.97h52.08c4.9,0,9.37-1.02,13.4-3.06,4.03-2.04,7.38-4.9,10.03-8.58,3.47,4.29,7.15,7.28,11.03,8.96,3.88,1.68,9.04,2.58,15.47,2.68h36.61v-75.98h-21.29v57.6Z"/>
        <rect class="cls-2" x="194.75" y="155.97" width="22.06" height="19.3"/>
        <path class="cls-2" d="M252.42,191.81c-6.28,3.37-11.16,8.04-14.63,14.02-3.47,5.97-5.21,12.64-5.21,19.99s1.61,14.4,4.82,20.22c3.22,5.82,7.66,10.32,13.33,13.48,5.67,3.17,12.02,4.75,19.07,4.75h2.14l8.27-18.38h-6.74c-6.03,0-10.65-1.76-13.86-5.28-3.22-3.52-4.82-8.35-4.82-14.48,0-13.99,6.23-20.99,18.69-20.99,2.96,0,6.23.36,9.8,1.07v52.85c0,5-.97,8.96-2.91,11.87-1.94,2.91-4.78,5.1-8.5,6.59-3.73,1.48-8.76,2.63-15.09,3.44l8.58,19.15c8.37-1.33,15.4-3.4,21.06-6.21s10.13-7.07,13.4-12.79c3.27-5.72,4.9-13.33,4.9-22.83v-68.47c-13.28-2.04-23.44-3.06-30.48-3.06-8.27,0-15.55,1.68-21.83,5.06Z"/>
        <rect class="cls-2" x="471.09" y="155.97" width="22.06" height="19.3"/>
        <rect class="cls-2" x="501.73" y="155.97" width="22.06" height="19.3"/>
        <path class="cls-2" d="M543.86,245.89h-15.32c-5.93,0-10.32-.43-13.17-1.3-2.86-.87-5.41-2.53-7.66-4.98.51-2.76.77-5.41.77-7.97v-44.88h-21.45v41.51c0,5.31-1.45,9.57-4.36,12.79-2.91,3.22-6.41,4.82-10.49,4.82h-13.79c-.07,0-.12.03-.19.03-.1,0-.17-.03-.27-.03-8.48,0-15.17-.41-20.07-1.23,4.9-4.08,8.78-8.71,11.64-13.86,2.86-5.16,4.29-10.24,4.29-15.24,0-5.41-1.91-10.57-5.74-15.47s-8.96-8.86-15.39-11.87c-6.43-3.01-13.33-4.52-20.68-4.52-6.13,0-12.15.84-18.08,2.53-5.92,1.68-12.82,4.21-20.68,7.58l-4.75,19.91c8.27,13.69,15.32,23.9,21.14,30.64-6.03,1.02-14.76,1.53-26.19,1.53-.02,0-.03.02-.05.02-.04,0-.06-.02-.1-.02h-3.06c-3.88,0-6.82-1.1-8.81-3.29-1.99-2.19-2.99-5.95-2.99-11.26v-84.4h-21.45v87.78c0,8.99,2.3,16.16,6.89,21.52,4.6,5.36,11.23,8.04,19.92,8.04h9.5s.06-.02.1-.02c.02,0,.03.02.05.02,19.2,0,36.25-1.89,51.16-5.67,12.56,3.78,27.01,5.67,43.35,5.67.1,0,.18-.03.27-.03.07,0,.11.03.19.03h20.22c4.9,0,9.37-1.02,13.4-3.06,4.03-2.04,7.38-4.9,10.03-8.58,3.47,4.29,7.15,7.28,11.03,8.96,3.88,1.68,9.04,2.58,15.47,2.68h36.61v-117.34h-21.29v98.96ZM426.44,232.41c-3.93,4.09-8.6,7.46-14.02,10.11-4.49-4.08-8.99-9.11-13.48-15.09-4.49-5.97-8.12-11.67-10.88-17.08,8.89-3.98,16.44-5.97,22.67-5.97s11.13,1.35,15.32,4.06c4.19,2.71,6.28,6.36,6.28,10.95s-1.97,8.94-5.9,13.02Z"/>
        <rect class="cls-2" x="591.19" y="146.93" width="21.45" height="117.34"/>
        <rect class="cls-2" x="679.58" y="155.97" width="22.06" height="19.3"/>
        <rect class="cls-2" x="710.22" y="155.97" width="22.06" height="19.3"/>
        <rect class="cls-2" x="809.18" y="277.75" width="22.06" height="19.3"/>
        <rect class="cls-2" x="778.54" y="277.75" width="22.06" height="19.3"/>
        <rect class="cls-2" x="1057.34" y="277.75" width="22.06" height="19.3"/>
        <path class="cls-2" d="M1148.49,245.89h-15.32c-3.37,0-6.77-1.02-10.19-3.06-3.42-2.04-5.8-4.85-7.12-8.43l-8.27-21.14c-3.17-8.17-8.35-14.63-15.55-19.38-7.2-4.75-15.65-7.12-25.35-7.12-10.21,0-19.76,2.35-28.65,7.05l7.81,17.46c5.31-2.55,11.18-3.83,17.62-3.83,5.82,0,10.82,1.35,15.01,4.06,4.19,2.71,7.3,6.56,9.34,11.57l7.05,17c-6.13,2.35-12.28,3.91-18.46,4.67-6.18.77-13.15,1.15-20.91,1.15h-27.11c-6.03,0-10.62-1.48-13.79-4.44,1.84-4.6,2.76-9.8,2.76-15.63,0-7.35-1.74-14.02-5.21-19.99-3.47-5.97-8.35-10.65-14.63-14.02-6.28-3.37-13.56-5.06-21.83-5.06-7.05,0-17.21,1.02-30.48,3.06v56.07h-9.19c-.07,0-.12.03-.19.03-.1,0-.17-.03-.27-.03-8.48,0-15.17-.41-20.07-1.23,4.9-4.08,8.78-8.71,11.64-13.86,2.86-5.16,4.29-10.24,4.29-15.24,0-5.41-1.91-10.57-5.74-15.47s-8.96-8.86-15.39-11.87c-6.43-3.01-13.33-4.52-20.68-4.52-6.13,0-12.15.84-18.08,2.53-5.92,1.68-12.82,4.21-20.68,7.58l-4.75,19.91c8.27,13.69,15.32,23.9,21.14,30.64-6.03,1.02-14.76,1.53-26.19,1.53-.02,0-.03.02-.05.02-.04,0-.06-.02-.1-.02-5.93,0-10.32-.43-13.17-1.3-2.86-.87-5.41-2.53-7.66-4.98.51-2.76.77-5.41.77-7.97v-44.88h-21.45v41.51c0,5.31-1.45,9.57-4.36,12.79-2.91,3.22-6.41,4.82-10.49,4.82h-36.76c-3.88,0-6.82-1.1-8.81-3.29-1.99-2.19-2.99-5.95-2.99-11.26l.15-41.51c-13.28-2.04-23.44-3.06-30.48-3.06-8.27,0-15.55,1.68-21.83,5.06-6.28,3.37-11.16,8.04-14.63,14.02-3.47,5.97-5.21,12.64-5.21,19.99s1.63,14.4,4.9,20.22c3.27,5.82,7.76,10.32,13.48,13.48,5.72,3.17,12.1,4.75,19.15,4.75h3.06l8.27-18.38h-7.97c-6.03,0-10.65-1.76-13.86-5.28-3.22-3.52-4.82-8.35-4.82-14.48,0-13.99,6.23-20.99,18.69-20.99,2.86,0,6.08.36,9.65,1.07v28.49c0,9.09,2.3,16.29,6.89,21.6,4.6,5.31,11.23,7.97,19.92,7.97h49.63c4.9,0,9.37-1.02,13.4-3.06,4.03-2.04,7.38-4.9,10.03-8.58,3.47,4.29,7.15,7.28,11.03,8.96,3.88,1.68,9.04,2.58,15.47,2.68.04,0,.06-.02.1-.02.02,0,.03.02.05.02,19.2,0,36.25-1.89,51.16-5.67,12.56,3.78,27.01,5.67,43.35,5.67.1,0,.18-.03.27-.03.07,0,.11.03.19.03h44.12c10.42,0,19.15-3.37,26.19-10.11,3.17,3.37,6.76,5.9,10.8,7.58,4.03,1.69,7.79,2.53,11.26,2.53h27.11c7.76,0,15.78-.95,24.05-2.83s15.72-4.62,22.37-8.19c6.64,7.35,17.05,11.03,31.25,11.03h36.61v-117.34h-21.29v98.96ZM904.08,232.41c-3.93,4.09-8.6,7.46-14.02,10.11-4.49-4.08-8.99-9.11-13.48-15.09-4.49-5.97-8.12-11.67-10.88-17.08,8.89-3.98,16.44-5.97,22.67-5.97s11.13,1.35,15.32,4.06c4.19,2.71,6.28,6.36,6.28,10.95s-1.97,8.94-5.9,13.02ZM990.32,240.6c-3.22,3.52-7.84,5.28-13.86,5.28h-9.8v-39.67c3.37-.71,6.64-1.07,9.8-1.07,12.46,0,18.69,7,18.69,20.99,0,6.13-1.61,10.95-4.82,14.48Z"/>
        <rect class="cls-2" x="1195.82" y="146.93" width="21.45" height="117.34"/>
      </g>
      <g>
        <rect class="cls-2" x="59.33" y="465.06" width="22.06" height="19.3"/>
        <rect class="cls-2" x="28.69" y="465.06" width="22.06" height="19.3"/>
        <path class="cls-2" d="M444.9,433.2h-9.5c-5.21,0-9.96-1.12-14.25-3.37-4.29-2.25-6.59-5.56-6.89-9.96v-44.27h-21.45v39.98c0,5.31-1.46,9.57-4.37,12.79-2.91,3.22-6.41,4.82-10.49,4.82h-9.5v-57.6h-21.45v57.6h-15.32c-6.03,0-10.44-.43-13.25-1.3-2.81-.87-5.39-2.58-7.73-5.13.61-3.27.92-5.87.92-7.81v-49.79h-21.45v46.42c0,5.92-1.33,10.34-3.98,13.25-2.66,2.91-6.03,4.36-10.11,4.36s-7.99-1.2-11.41-3.6c-3.42-2.4-5.13-5.9-5.13-10.49v-43.5h-21.45v39.98c0,5.31-1.46,9.57-4.37,12.79-2.91,3.22-6.41,4.82-10.49,4.82h-9.5v-57.6h-21.45v57.6h-38.3c-3.88,0-6.82-1.1-8.81-3.29-1.99-2.19-2.99-5.95-2.99-11.26v-61.43h-32.93c-12.97,0-22.47,3.4-28.49,10.19-6.03,6.79-9.04,15.3-9.04,25.5v40.29h-27.27c-15.01,0-22.52-6.84-22.52-20.53v-37.07H.51v40.44c0,10.21,3.01,18.69,9.04,25.43,6.02,6.74,15.52,10.11,28.49,10.11h55.15v-55.3c0-13.79,7.51-20.68,22.52-20.68h5.05v46.42c0,8.99,2.3,16.16,6.89,21.52,4.6,5.36,11.23,8.04,19.91,8.04h82.11c9.19,0,16.64-3.42,22.37-10.26,2.86,3.37,6.36,5.92,10.49,7.66,4.14,1.74,9.67,2.61,16.62,2.61,5.31,0,10.19-1.07,14.63-3.22,4.44-2.14,8.09-5.1,10.95-8.89,3.57,4.5,7.33,7.61,11.26,9.35,3.93,1.73,9.16,2.65,15.7,2.76h52.7c9.19,0,16.59-3.37,22.21-10.11,5.72,6.74,14.04,10.11,24.97,10.11h34.77v-82.42h-21.45v64.03Z"/>
        <path class="cls-2" d="M502.27,379.12c-6.28,3.37-11.16,8.04-14.63,14.02-3.47,5.97-5.21,12.64-5.21,19.99s1.61,14.4,4.82,20.22c3.22,5.82,7.66,10.32,13.33,13.48,5.67,3.17,12.02,4.75,19.07,4.75h2.14l8.27-18.38h-6.74c-6.03,0-10.65-1.76-13.86-5.28-3.22-3.52-4.82-8.35-4.82-14.48,0-13.99,6.23-20.99,18.69-20.99,2.96,0,6.23.36,9.8,1.07v52.85c0,5-.97,8.96-2.91,11.87-1.94,2.91-4.78,5.1-8.5,6.59-3.73,1.48-8.76,2.63-15.09,3.44l8.58,19.15c8.37-1.33,15.4-3.4,21.06-6.2s10.13-7.07,13.4-12.79c3.27-5.72,4.9-13.33,4.9-22.83v-68.47c-13.28-2.04-23.44-3.06-30.48-3.06-8.27,0-15.55,1.69-21.83,5.06Z"/>
        <path class="cls-2" d="M543.86,352.16h-17.62c-.82-1.12-1.23-2.6-1.23-4.44s.48-3.27,1.46-4.29c.97-1.02,2.22-1.53,3.75-1.53,1.12,0,2.55.31,4.29.92l3.83-11.64c-3.37-1.02-6.54-1.53-9.5-1.53-5.31,0-9.52,1.48-12.64,4.44-3.12,2.96-4.67,6.95-4.67,11.95,0,2.04.51,4.09,1.53,6.13h-7.51l-2.76,13.02h41.05v-13.02Z"/>
        <path class="cls-2" d="M692.14,433.2h-15.32c-6.03,0-10.62-1.48-13.79-4.44,1.84-4.6,2.76-9.8,2.76-15.63,0-7.35-1.74-14.02-5.21-19.99-3.47-5.97-8.35-10.65-14.63-14.02-6.28-3.37-13.56-5.06-21.83-5.06-7.05,0-17.21,1.02-30.48,3.06v56.07h-29.11c-.61,0-1.02.18-1.23.54-.2.36-.31.69-.31.99v15.32c0,.31.1.64.31.99.2.36.61.54,1.23.54h64.03c10.42,0,19.15-3.37,26.19-10.11,3.17,3.37,6.76,5.9,10.8,7.58,4.03,1.69,7.79,2.53,11.26,2.53h36.61v-117.34h-21.29v98.96ZM638.76,427.91c-3.22,3.52-7.84,5.28-13.86,5.28h-9.8v-39.67c3.37-.71,6.64-1.07,9.8-1.07,12.46,0,18.69,7,18.69,20.99,0,6.13-1.61,10.95-4.82,14.48Z"/>
        <rect class="cls-2" x="739.48" y="334.24" width="21.45" height="117.34"/>
        <rect class="cls-2" x="822.97" y="343.28" width="22.06" height="19.3"/>
        <rect class="cls-2" x="902.47" y="465.06" width="22.06" height="19.3"/>
        <rect class="cls-2" x="933.1" y="465.06" width="22.06" height="19.3"/>
        <rect class="cls-2" x="1069.9" y="343.28" width="22.06" height="19.3"/>
        <rect class="cls-2" x="1100.54" y="343.28" width="22.06" height="19.3"/>
        <path class="cls-2" d="M1195.97,334.24v98.96h-15.32c-6.84,0-11.8-1.89-14.86-5.67.61-2.76.92-5.62.92-8.58v-84.71h-21.45v81.34c0,5.31-1.45,9.57-4.37,12.79-2.91,3.22-6.41,4.82-10.49,4.82h-3.06c-5.93,0-10.32-.43-13.17-1.3-2.86-.87-5.41-2.53-7.66-4.98.51-2.76.77-5.41.77-7.97v-44.88h-21.45v41.51c0,5.31-1.45,9.57-4.36,12.79-2.91,3.22-6.41,4.82-10.49,4.82h-13.79c-6.03,0-10.62-1.48-13.79-4.44,1.84-4.6,2.76-9.8,2.76-15.63,0-7.35-1.74-14.02-5.21-19.99-3.47-5.97-8.35-10.65-14.63-14.02-6.28-3.37-13.56-5.06-21.83-5.06-7.05,0-17.21,1.02-30.48,3.06v56.07h-9.19c-5.93,0-10.32-.43-13.17-1.3-2.86-.87-5.41-2.53-7.66-4.98.51-2.76.77-5.41.77-7.97v-44.88h-21.45v41.51c0,5.31-1.45,9.57-4.36,12.79-2.91,3.22-6.41,4.82-10.49,4.82h-48.1c-7.05,0-12.2-2.19-15.47-6.59v-51.01h-21.45v72c0,5-.72,8.91-2.14,11.72-1.43,2.81-3.58,4.82-6.43,6.05-2.86,1.23-6.79,2.19-11.8,2.91l8.58,19.15c9.81-1.12,17.79-4.82,23.97-11.11,6.18-6.28,9.27-16.06,9.27-29.33v-.15c2.91,1.73,5.77,2.95,8.58,3.73.05.16.05.31.15.48.21.36.61.54,1.23.54h60.05c4.9,0,9.37-1.02,13.4-3.06,4.03-2.04,7.38-4.9,10.03-8.58,3.47,4.29,7.15,7.28,11.03,8.96,3.88,1.68,9.04,2.58,15.47,2.68h44.12c10.42,0,19.15-3.37,26.19-10.11,3.17,3.37,6.76,5.9,10.8,7.58,4.03,1.69,7.79,2.53,11.26,2.53h20.22c4.9,0,9.37-1.02,13.4-3.06,4.03-2.04,7.38-4.9,10.03-8.58,3.47,4.29,7.15,7.28,11.03,8.96,3.88,1.68,9.04,2.58,15.47,2.68h9.5c9.19,0,16.54-3.27,22.06-9.81,3.16,3.27,6.74,5.72,10.72,7.35,3.98,1.63,7.66,2.45,11.03,2.45h36.61v-117.34h-21.29ZM1019.12,427.91c-3.22,3.52-7.84,5.28-13.86,5.28h-9.8v-39.67c3.37-.71,6.64-1.07,9.8-1.07,12.46,0,18.69,7,18.69,20.99,0,6.13-1.61,10.95-4.82,14.48Z"/>
      </g>
    </g>
  </g>
</svg>