<?xml version="1.0" encoding="UTF-8"?>
<svg id="Layer_1" data-name="Layer 1" xmlns="http://www.w3.org/2000/svg" xmlns:xlink="http://www.w3.org/1999/xlink" viewBox="0 0 854.88 730.12">
  <defs>
    <style>
      .cls-1 {
        fill: url(#linear-gradient);
      }

      .cls-2 {
        fill: #27bcbb;
      }
    </style>
    <linearGradient id="linear-gradient" x1="0" y1="365.06" x2="854.88" y2="365.06" gradientUnits="userSpaceOnUse">
      <stop offset="0" stop-color="#4b60ab"/>
      <stop offset="1" stop-color="#212856"/>
    </linearGradient>
  </defs>
  <g>
    <polygon class="cls-2" points="206.92 373.53 170.98 348.62 170.98 381.71 206.72 406.47 206.92 406.61 207.13 406.47 341.95 313.04 341.95 279.95 206.92 373.53"/>
    <polygon class="cls-2" points="206.92 418.14 170.98 393.23 170.98 426.32 206.72 451.09 206.92 451.23 207.13 451.09 341.95 357.66 341.95 324.56 206.92 418.14"/>
  </g>
  <path class="cls-1" d="M35.95,513.5L0,488.59v33.09l35.74,24.76.2.14.21-.14,134.82-93.43v-33.1l-135.03,93.58ZM35.95,558.12L0,533.21v33.09l35.74,24.76.2.14.21-.14,134.82-93.43v-33.1l-135.03,93.58ZM206.92,513.5l-35.95-24.91v33.09l35.74,24.76.2.14.21-.14,134.82-93.43v-33.1l-135.03,93.58ZM206.92,558.12l-35.95-24.91v33.09l35.74,24.76.2.14.21-.14,134.82-93.43v-33.1l-135.03,93.58ZM377.9,513.5l-35.95-24.91v33.09l35.74,24.76.2.14.21-.14,134.82-93.43v-33.1l-135.03,93.58ZM377.9,558.12l-35.95-24.91v33.09l35.74,24.76.2.14.21-.14,134.82-93.43v-33.1l-135.03,93.58ZM548.87,513.5l-35.95-24.91v33.09l35.74,24.76.2.14.21-.14,134.82-93.43v-33.1l-135.03,93.58ZM548.87,558.12l-35.95-24.91v33.09l35.74,24.76.2.14.21-.14,134.82-93.43v-33.1l-135.03,93.58ZM35.95,373.53L0,348.62v33.09l35.74,24.76.2.14.21-.14,134.82-93.43v-33.1l-135.03,93.58ZM35.95,418.14L0,393.23v33.09l35.74,24.76.2.14.21-.14,134.82-93.43v-33.1l-135.03,93.58ZM35.95,652.41L0,627.51v33.09l35.74,24.76.2.14.21-.14,134.82-93.43v-33.1l-135.03,93.58ZM35.95,697.03L0,672.12v33.09l35.74,24.76.2.14.21-.14,134.82-93.43v-33.1l-135.03,93.58ZM548.87,373.53l-35.95-24.91v33.09l35.74,24.76.2.14.21-.14,134.82-93.43v-33.1l-135.03,93.58ZM548.87,418.14l-35.95-24.91v33.09l35.74,24.76.2.14.21-.14,134.82-93.43v-33.1l-135.03,93.58ZM35.95,233.55L0,208.64v33.09l35.74,24.76.2.14.21-.14,134.82-93.43v-33.1L35.95,233.55ZM35.95,278.17L0,253.26v33.09l35.74,24.76.2.14.21-.14,134.82-93.43v-33.1l-135.03,93.58ZM377.9,233.55l-35.95-24.91v33.09l35.74,24.76.2.14.21-.14,134.82-93.43v-33.1l-135.03,93.58ZM377.9,278.17l-35.95-24.91v33.09l35.74,24.76.2.14.21-.14,134.82-93.43v-33.1l-135.03,93.58ZM719.85,233.55l-35.95-24.91v33.09l35.74,24.76.2.14.21-.14,134.82-93.43v-33.1l-135.03,93.58ZM719.85,278.17l-35.95-24.91v33.09l35.74,24.76.2.14.21-.14,134.82-93.43v-33.1l-135.03,93.58ZM548.87,233.55l-35.95-24.91v33.09l35.74,24.76.2.14.21-.14,134.82-93.43v-33.1l-135.03,93.58ZM548.87,278.17l-35.95-24.91v33.09l35.74,24.76.2.14.21-.14,134.82-93.43v-33.1l-135.03,93.58ZM548.87,93.58l-35.95-24.91v33.09l35.74,24.76.2.14.21-.14,134.82-93.43V0l-135.03,93.58ZM548.87,138.19l-35.95-24.91v33.09l35.74,24.76.2.14.21-.14,134.82-93.43v-33.1l-135.03,93.58ZM719.85,93.58l-35.95-24.91v33.09l35.74,24.76.2.14.21-.14,134.82-93.43V0l-135.03,93.58ZM719.85,138.19l-35.95-24.91v33.09l35.74,24.76.2.14.21-.14,134.82-93.43v-33.1l-135.03,93.58ZM377.9,373.53l-35.95-24.91v33.09l35.74,24.76.2.14.21-.14,134.82-93.43v-33.1l-135.03,93.58ZM377.9,418.14l-35.95-24.91v33.09l35.74,24.76.2.14.21-.14,134.82-93.43v-33.1l-135.03,93.58Z"/>
</svg>