<?xml version="1.0" encoding="UTF-8"?>
<svg id="Layer_1" xmlns="http://www.w3.org/2000/svg" version="1.1" viewBox="0 0 495.86 183.88">
  <!-- Generator: Adobe Illustrator 29.5.0, SVG Export Plug-In . SVG Version: 2.1.0 Build 137)  -->
  <defs>
    <style>
      .st0 {
        fill: #fff;
      }
    </style>
  </defs>
  <g>
    <g>
      <path class="st0" d="M.43,154.93c-.36-1.07-.43-1.94-.43-4.24s.07-3.15.43-4.24c.82-2.49,2.9-3.76,5.66-3.76s4.84,1.28,5.66,3.76c.36,1.09.43,1.94.43,4.24s-.07,3.17-.43,4.24c-.84,2.58-2.9,3.76-5.66,3.76s-4.81-1.19-5.66-3.76ZM8.53,154.02c.18-.55.25-1.3.25-3.33s-.07-2.78-.25-3.33c-.34-1.07-1.16-1.71-2.44-1.71s-2.1.64-2.44,1.71c-.18.55-.25,1.3-.25,3.33s.07,2.78.25,3.33c.34,1.07,1.16,1.71,2.44,1.71s2.1-.64,2.44-1.71Z"/>
      <path class="st0" d="M14.91,158.44c-.16,0-.23-.07-.23-.23v-10.58c0-.16.07-.23.23-.23h2.74c.16,0,.23.07.23.23v.94h.02c.52-.89,1.51-1.41,2.87-1.41.73,0,1.46.23,1.94.66.11.09.14.21.07.32l-1.28,2.33c-.07.11-.16.11-.32.05-.59-.34-1.12-.52-1.6-.5-1.19.07-1.71.91-1.71,2.4v5.82c0,.16-.07.23-.23.23h-2.74Z"/>
      <path class="st0" d="M24.24,161.13c-.09-.11-.09-.23.02-.34l1.62-1.64c.11-.11.23-.11.34,0,.71.62,1.39.96,2.28.96,1.55,0,2.21-.8,2.21-2.44v-.94h-.02c-.48.8-1.44,1.28-2.83,1.28-1.82,0-3.13-.91-3.7-2.67-.25-.82-.36-1.57-.36-2.76s.11-1.96.36-2.76c.57-1.76,1.87-2.67,3.7-2.67,1.39,0,2.35.48,2.83,1.28h.02v-.8c0-.16.07-.23.23-.23h2.74c.16,0,.23.07.23.23v9.63c0,3.69-1.82,5.54-5.5,5.54-1.64,0-3.38-.68-4.17-1.67ZM30.51,154.13c.16-.43.21-.84.21-1.55s-.05-1.12-.21-1.55c-.27-.8-.75-1.19-1.64-1.19-.82,0-1.37.39-1.64,1.19-.16.43-.18.84-.18,1.55s.02,1.12.18,1.55c.27.8.82,1.19,1.64,1.19.89,0,1.37-.39,1.64-1.19Z"/>
      <path class="st0" d="M43.26,158.44c-.16,0-.23-.07-.23-.23v-.73h-.02c-.57.73-1.48,1.21-3.03,1.21-1.96,0-3.67-1-3.67-3.38s1.85-3.56,4.58-3.56h1.96c.09,0,.14-.05.14-.14v-.41c0-1.03-.5-1.51-2.26-1.51-1.12,0-1.94.32-2.46.71-.11.09-.23.07-.3-.05l-1.03-1.8c-.07-.14-.05-.25.07-.32.94-.66,2.28-1.09,4.11-1.09,3.58,0,4.9,1.25,4.9,3.99v7.07c0,.16-.07.23-.23.23h-2.53ZM42.99,154.77v-.75c0-.09-.05-.14-.14-.14h-1.55c-1.3,0-1.96.41-1.96,1.25,0,.78.52,1.16,1.6,1.16,1.37,0,2.05-.5,2.05-1.53Z"/>
      <path class="st0" d="M55.69,158.44c-.16,0-.23-.07-.23-.23v-6.34c0-1.21-.55-2.01-1.71-2.01-1.09,0-1.73.8-1.73,2.01v6.34c0,.16-.07.23-.23.23h-2.74c-.16,0-.23-.07-.23-.23v-10.58c0-.16.07-.23.23-.23h2.74c.16,0,.23.07.23.23v.78h.02c.52-.71,1.39-1.25,2.85-1.25,2.46,0,3.76,1.67,3.76,4.11v6.96c0,.16-.07.23-.23.23h-2.74Z"/>
      <path class="st0" d="M61.66,145.65c-.16,0-.23-.07-.23-.23v-2.26c0-.16.07-.23.23-.23h2.74c.16,0,.23.07.23.23v2.26c0,.16-.07.23-.23.23h-2.74ZM61.66,158.44c-.16,0-.23-.07-.23-.23v-10.58c0-.16.07-.23.23-.23h2.74c.16,0,.23.07.23.23v10.58c0,.16-.07.23-.23.23h-2.74Z"/>
      <path class="st0" d="M67.2,158.44c-.16,0-.23-.07-.23-.23v-2.05c0-.07.02-.16.07-.23l5.25-5.86v-.05h-4.79c-.16,0-.23-.07-.23-.23v-2.17c0-.16.07-.23.23-.23h8.33c.16,0,.23.07.23.23v2.17c0,.09-.02.16-.07.23l-5.2,5.75v.05h5.04c.16,0,.23.07.23.23v2.17c0,.16-.07.23-.23.23h-8.62Z"/>
      <path class="st0" d="M85.02,158.44c-.16,0-.23-.07-.23-.23v-.73h-.02c-.57.73-1.48,1.21-3.03,1.21-1.96,0-3.67-1-3.67-3.38s1.85-3.56,4.58-3.56h1.96c.09,0,.14-.05.14-.14v-.41c0-1.03-.5-1.51-2.26-1.51-1.12,0-1.94.32-2.46.71-.11.09-.23.07-.3-.05l-1.03-1.8c-.07-.14-.05-.25.07-.32.94-.66,2.28-1.09,4.11-1.09,3.58,0,4.9,1.25,4.9,3.99v7.07c0,.16-.07.23-.23.23h-2.53ZM84.74,154.77v-.75c0-.09-.05-.14-.14-.14h-1.55c-1.3,0-1.96.41-1.96,1.25,0,.78.52,1.16,1.6,1.16,1.37,0,2.05-.5,2.05-1.53Z"/>
      <path class="st0" d="M94.32,158.58c-2.55,0-3.51-1.14-3.51-3.67v-5.02c0-.09-.05-.14-.14-.14h-.68c-.16,0-.23-.07-.23-.23v-1.89c0-.16.07-.23.23-.23h.68c.09,0,.14-.05.14-.14v-2.96c0-.16.07-.23.23-.23h2.71c.16,0,.23.07.23.23v2.96c0,.09.05.14.14.14h1.41c.16,0,.23.07.23.23v1.89c0,.16-.07.23-.23.23h-1.41c-.09,0-.14.05-.14.14v4.88c0,.82.27,1.09,1,1.09h.55c.16,0,.23.07.23.23v2.26c0,.16-.07.23-.23.23h-1.21Z"/>
      <path class="st0" d="M98.35,145.65c-.16,0-.23-.07-.23-.23v-2.26c0-.16.07-.23.23-.23h2.74c.16,0,.23.07.23.23v2.26c0,.16-.07.23-.23.23h-2.74ZM98.35,158.44c-.16,0-.23-.07-.23-.23v-10.58c0-.16.07-.23.23-.23h2.74c.16,0,.23.07.23.23v10.58c0,.16-.07.23-.23.23h-2.74Z"/>
      <path class="st0" d="M104.01,155.59c-.25-.8-.36-1.57-.36-2.67s.11-1.87.36-2.67c.64-2.01,2.42-3.1,4.79-3.1s4.15,1.09,4.79,3.1c.25.8.36,1.57.36,2.67s-.11,1.87-.36,2.67c-.64,2.01-2.42,3.1-4.79,3.1s-4.15-1.09-4.79-3.1ZM110.51,154.82c.16-.52.21-.96.21-1.89s-.05-1.37-.21-1.89c-.25-.8-.82-1.19-1.71-1.19s-1.46.39-1.71,1.19c-.16.52-.21.96-.21,1.89s.05,1.37.21,1.89c.25.8.82,1.19,1.71,1.19s1.46-.39,1.71-1.19Z"/>
      <path class="st0" d="M123.14,158.44c-.16,0-.23-.07-.23-.23v-6.34c0-1.21-.55-2.01-1.71-2.01-1.09,0-1.73.8-1.73,2.01v6.34c0,.16-.07.23-.23.23h-2.74c-.16,0-.23-.07-.23-.23v-10.58c0-.16.07-.23.23-.23h2.74c.16,0,.23.07.23.23v.78h.02c.52-.71,1.39-1.25,2.85-1.25,2.46,0,3.76,1.67,3.76,4.11v6.96c0,.16-.07.23-.23.23h-2.74Z"/>
      <path class="st0" d="M134.32,143.16c0-.16.07-.23.23-.23h9.94c.16,0,.23.07.23.23v2.44c0,.16-.07.23-.23.23h-6.68c-.09,0-.14.05-.14.14v3.08c0,.09.05.14.14.14h5.56c.16,0,.23.07.23.23v2.42c0,.16-.07.23-.23.23h-5.56c-.09,0-.14.05-.14.14v3.22c0,.09.05.14.14.14h6.68c.16,0,.23.07.23.23v2.44c0,.16-.07.23-.23.23h-9.94c-.16,0-.23-.07-.23-.23v-15.05Z"/>
      <path class="st0" d="M153.5,158.44c-.14,0-.25-.07-.34-.21l-1.98-3.01h-.02l-1.96,3.01c-.11.14-.25.21-.36.21h-2.94c-.18,0-.23-.11-.16-.23l3.72-5.5-3.44-5.09c-.07-.11-.02-.23.16-.23h2.97c.16,0,.3.07.39.21l1.66,2.6h.02l1.69-2.6c.11-.14.23-.21.36-.21h2.94c.21,0,.25.11.18.23l-3.44,5.09,3.72,5.5c.07.11.02.23-.18.23h-2.96Z"/>
      <path class="st0" d="M158.28,155.57c-.23-.66-.34-1.48-.34-2.65s.11-1.98.34-2.65c.75-2.1,2.39-3.13,4.77-3.13,1.92,0,3.38.87,4.17,2.08.07.11.07.23-.05.32l-1.98,1.3c-.14.09-.25.07-.34-.05-.48-.66-.96-.96-1.76-.96-.84,0-1.46.39-1.71,1.19-.16.46-.21.98-.21,1.89s.05,1.44.21,1.89c.25.8.87,1.19,1.71,1.19.8,0,1.28-.3,1.76-.96.09-.11.21-.14.34-.05l1.98,1.3c.11.09.11.21.05.32-.8,1.21-2.26,2.08-4.17,2.08-2.37,0-4.01-1.03-4.77-3.12Z"/>
      <path class="st0" d="M169.3,155.55c-.25-.71-.39-1.46-.39-2.62s.11-1.94.36-2.65c.71-2.01,2.37-3.13,4.74-3.13s4.13,1.16,4.77,3.1c.25.75.36,1.53.36,3.4,0,.16-.09.23-.25.23h-6.68c-.09,0-.14.05-.14.14.02.23.07.43.14.62.3.98,1.12,1.46,2.28,1.46,1.09,0,1.89-.36,2.53-.98.14-.11.25-.11.32,0l1.51,1.41c.11.11.11.23.02.32-1.07,1.12-2.67,1.85-4.7,1.85-2.58,0-4.17-1.14-4.88-3.15ZM175.87,151.76c.09,0,.14-.05.14-.14,0-.34-.05-.57-.11-.82-.25-.75-.94-1.21-1.85-1.21s-1.6.46-1.85,1.21c-.07.25-.11.48-.11.82,0,.09.05.14.14.14h3.65Z"/>
      <path class="st0" d="M184.85,158.58c-2.46,0-3.42-1.05-3.42-3.51v-11.91c0-.16.07-.23.23-.23h2.74c.16,0,.23.07.23.23v11.66c0,.75.3,1.05.96,1.05h.48c.16,0,.23.07.23.23v2.26c0,.16-.07.23-.23.23h-1.21Z"/>
      <path class="st0" d="M191.78,158.58c-2.46,0-3.42-1.05-3.42-3.51v-11.91c0-.16.07-.23.23-.23h2.74c.16,0,.23.07.23.23v11.66c0,.75.3,1.05.96,1.05h.48c.16,0,.23.07.23.23v2.26c0,.16-.07.23-.23.23h-1.21Z"/>
      <path class="st0" d="M195.18,155.55c-.25-.71-.39-1.46-.39-2.62s.11-1.94.36-2.65c.71-2.01,2.37-3.13,4.74-3.13s4.13,1.16,4.77,3.1c.25.75.36,1.53.36,3.4,0,.16-.09.23-.25.23h-6.68c-.09,0-.14.05-.14.14.02.23.07.43.14.62.3.98,1.12,1.46,2.28,1.46,1.09,0,1.89-.36,2.53-.98.14-.11.25-.11.32,0l1.51,1.41c.11.11.11.23.02.32-1.07,1.12-2.67,1.85-4.7,1.85-2.58,0-4.17-1.14-4.88-3.15ZM201.75,151.76c.09,0,.14-.05.14-.14,0-.34-.05-.57-.11-.82-.25-.75-.94-1.21-1.85-1.21s-1.6.46-1.85,1.21c-.07.25-.11.48-.11.82,0,.09.05.14.14.14h3.65Z"/>
      <path class="st0" d="M214.22,158.44c-.16,0-.23-.07-.23-.23v-6.34c0-1.21-.55-2.01-1.71-2.01-1.09,0-1.73.8-1.73,2.01v6.34c0,.16-.07.23-.23.23h-2.74c-.16,0-.23-.07-.23-.23v-10.58c0-.16.07-.23.23-.23h2.74c.16,0,.23.07.23.23v.78h.02c.52-.71,1.39-1.25,2.85-1.25,2.46,0,3.76,1.67,3.76,4.11v6.96c0,.16-.07.23-.23.23h-2.74Z"/>
      <path class="st0" d="M219.76,155.57c-.23-.66-.34-1.48-.34-2.65s.11-1.98.34-2.65c.75-2.1,2.4-3.13,4.77-3.13,1.92,0,3.38.87,4.17,2.08.07.11.07.23-.05.32l-1.98,1.3c-.14.09-.25.07-.34-.05-.48-.66-.96-.96-1.76-.96-.84,0-1.46.39-1.71,1.19-.16.46-.21.98-.21,1.89s.05,1.44.21,1.89c.25.8.87,1.19,1.71,1.19.8,0,1.28-.3,1.76-.96.09-.11.21-.14.34-.05l1.98,1.3c.11.09.11.21.05.32-.8,1.21-2.26,2.08-4.17,2.08-2.37,0-4.01-1.03-4.77-3.12Z"/>
      <path class="st0" d="M230.78,155.55c-.25-.71-.39-1.46-.39-2.62s.11-1.94.36-2.65c.71-2.01,2.37-3.13,4.74-3.13s4.13,1.16,4.77,3.1c.25.75.36,1.53.36,3.4,0,.16-.09.23-.25.23h-6.68c-.09,0-.14.05-.14.14.02.23.07.43.14.62.3.98,1.12,1.46,2.28,1.46,1.09,0,1.89-.36,2.53-.98.14-.11.25-.11.32,0l1.51,1.41c.11.11.11.23.02.32-1.07,1.12-2.67,1.85-4.7,1.85-2.58,0-4.17-1.14-4.88-3.15ZM237.35,151.76c.09,0,.14-.05.14-.14,0-.34-.05-.57-.11-.82-.25-.75-.94-1.21-1.85-1.21s-1.6.46-1.85,1.21c-.07.25-.11.48-.11.82,0,.09.05.14.14.14h3.65Z"/>
      <path class="st0" d="M247.63,156.57c-.11-.11-.14-.25-.02-.39l1.73-1.98c.09-.11.21-.14.34-.02,1.03.82,2.42,1.6,4.06,1.6s2.53-.75,2.53-1.85c0-.91-.55-1.48-2.4-1.73l-.82-.11c-3.22-.46-4.9-1.89-4.9-4.65s2.14-4.74,5.5-4.74c2.1,0,3.97.62,5.27,1.62.14.09.16.21.05.34l-1.39,2.08c-.09.11-.21.14-.32.07-1.19-.8-2.33-1.19-3.6-1.19-1.37,0-2.08.71-2.08,1.69,0,.89.59,1.46,2.42,1.71l.82.11c3.22.46,4.88,1.85,4.88,4.7s-2.08,4.88-6.09,4.88c-2.44,0-4.77-.96-5.98-2.12Z"/>
      <path class="st0" d="M261.72,155.59c-.25-.8-.36-1.57-.36-2.67s.11-1.87.36-2.67c.64-2.01,2.42-3.1,4.79-3.1s4.15,1.09,4.79,3.1c.25.8.36,1.57.36,2.67s-.11,1.87-.36,2.67c-.64,2.01-2.42,3.1-4.79,3.1s-4.15-1.09-4.79-3.1ZM268.22,154.82c.16-.52.21-.96.21-1.89s-.05-1.37-.21-1.89c-.25-.8-.82-1.19-1.71-1.19s-1.46.39-1.71,1.19c-.16.52-.21.96-.21,1.89s.05,1.37.21,1.89c.25.8.82,1.19,1.71,1.19s1.46-.39,1.71-1.19Z"/>
      <path class="st0" d="M273.79,155.57c-.23-.66-.34-1.48-.34-2.65s.11-1.98.34-2.65c.75-2.1,2.39-3.13,4.77-3.13,1.92,0,3.38.87,4.17,2.08.07.11.07.23-.05.32l-1.98,1.3c-.14.09-.25.07-.34-.05-.48-.66-.96-.96-1.76-.96-.84,0-1.46.39-1.71,1.19-.16.46-.21.98-.21,1.89s.05,1.44.21,1.89c.25.8.87,1.19,1.71,1.19.8,0,1.28-.3,1.76-.96.09-.11.21-.14.34-.05l1.98,1.3c.11.09.11.21.05.32-.8,1.21-2.26,2.08-4.17,2.08-2.37,0-4.01-1.03-4.77-3.12Z"/>
      <path class="st0" d="M285.19,145.65c-.16,0-.23-.07-.23-.23v-2.26c0-.16.07-.23.23-.23h2.74c.16,0,.23.07.23.23v2.26c0,.16-.07.23-.23.23h-2.74ZM285.19,158.44c-.16,0-.23-.07-.23-.23v-10.58c0-.16.07-.23.23-.23h2.74c.16,0,.23.07.23.23v10.58c0,.16-.07.23-.23.23h-2.74Z"/>
      <path class="st0" d="M290.87,155.55c-.25-.71-.39-1.46-.39-2.62s.11-1.94.36-2.65c.71-2.01,2.37-3.13,4.74-3.13s4.13,1.16,4.77,3.1c.25.75.36,1.53.36,3.4,0,.16-.09.23-.25.23h-6.68c-.09,0-.14.05-.14.14.02.23.07.43.14.62.3.98,1.12,1.46,2.28,1.46,1.09,0,1.89-.36,2.53-.98.14-.11.25-.11.32,0l1.51,1.41c.11.11.11.23.02.32-1.07,1.12-2.67,1.85-4.7,1.85-2.58,0-4.17-1.14-4.88-3.15ZM297.43,151.76c.09,0,.14-.05.14-.14,0-.34-.05-.57-.11-.82-.25-.75-.94-1.21-1.85-1.21s-1.6.46-1.85,1.21c-.07.25-.11.48-.11.82,0,.09.05.14.14.14h3.65Z"/>
      <path class="st0" d="M306.78,158.58c-2.55,0-3.51-1.14-3.51-3.67v-5.02c0-.09-.05-.14-.14-.14h-.68c-.16,0-.23-.07-.23-.23v-1.89c0-.16.07-.23.23-.23h.68c.09,0,.14-.05.14-.14v-2.96c0-.16.07-.23.23-.23h2.71c.16,0,.23.07.23.23v2.96c0,.09.05.14.14.14h1.41c.16,0,.23.07.23.23v1.89c0,.16-.07.23-.23.23h-1.41c-.09,0-.14.05-.14.14v4.88c0,.82.27,1.09,1,1.09h.55c.16,0,.23.07.23.23v2.26c0,.16-.07.23-.23.23h-1.21Z"/>
      <path class="st0" d="M311.28,162.55c-.16,0-.23-.07-.23-.23v-2.24c0-.16.07-.23.23-.23h.48c.8,0,1.21-.32,1.51-1.14l.3-.82-4.11-10.26c-.05-.16.02-.23.18-.23h2.92c.14,0,.23.07.27.23l2.21,6.39h.05l2.05-6.39c.05-.16.14-.23.27-.23h2.83c.18,0,.25.07.18.23l-4.47,11.75c-.94,2.46-1.92,3.17-3.9,3.17h-.78Z"/>
    </g>
    <g>
      <g>
        <rect class="st0" x="4.25" y="41.06" width="5.81" height="5.08"/>
        <rect class="st0" x="12.31" y="41.06" width="5.81" height="5.08"/>
        <rect class="st0" x="39.01" y="73.12" width="5.81" height="5.08"/>
        <rect class="st0" x="30.94" y="73.12" width="5.81" height="5.08"/>
        <path class="st0" d="M51.39,64.73h-4.03c-1.56,0-2.72-.11-3.47-.34-.75-.23-1.43-.67-2.02-1.31.13-.73.2-1.42.2-2.1v-11.82h-5.65v10.93c0,1.4-.38,2.52-1.15,3.37-.77.85-1.69,1.27-2.76,1.27h-10.32c-1.02,0-1.79-.29-2.32-.87-.52-.58-.79-1.57-.79-2.96l.04-10.93c-3.5-.54-6.17-.81-8.02-.81-2.18,0-4.09.44-5.75,1.33-1.65.89-2.94,2.12-3.85,3.69-.91,1.57-1.37,3.33-1.37,5.26s.43,3.79,1.29,5.32c.86,1.53,2.04,2.72,3.55,3.55,1.51.83,3.19,1.25,5.04,1.25h.81l2.18-4.84h-2.1c-1.59,0-2.8-.46-3.65-1.39-.85-.93-1.27-2.2-1.27-3.81,0-3.68,1.64-5.52,4.92-5.52.75,0,1.6.09,2.54.28v7.5c0,2.39.6,4.29,1.81,5.69,1.21,1.4,2.96,2.1,5.24,2.1h13.71c1.29,0,2.47-.27,3.53-.81,1.06-.54,1.94-1.29,2.64-2.26.91,1.13,1.88,1.92,2.9,2.36,1.02.44,2.38.68,4.07.71h9.64v-20h-5.6v15.16Z"/>
        <rect class="st0" x="51.27" y="41.06" width="5.81" height="5.08"/>
        <path class="st0" d="M66.45,50.5c-1.65.89-2.94,2.12-3.85,3.69-.91,1.57-1.37,3.33-1.37,5.26s.42,3.79,1.27,5.32c.85,1.53,2.02,2.72,3.51,3.55,1.49.83,3.17,1.25,5.02,1.25h.56l2.18-4.84h-1.77c-1.59,0-2.8-.46-3.65-1.39-.85-.93-1.27-2.2-1.27-3.81,0-3.68,1.64-5.52,4.92-5.52.78,0,1.64.09,2.58.28v13.91c0,1.32-.26,2.36-.77,3.13-.51.77-1.26,1.34-2.24,1.73-.98.39-2.31.69-3.97.91l2.26,5.04c2.2-.35,4.05-.89,5.55-1.63,1.49-.74,2.67-1.86,3.53-3.37.86-1.51,1.29-3.51,1.29-6.01v-18.03c-3.5-.54-6.17-.81-8.02-.81-2.18,0-4.09.44-5.75,1.33Z"/>
        <rect class="st0" x="124.02" y="41.06" width="5.81" height="5.08"/>
        <rect class="st0" x="132.08" y="41.06" width="5.81" height="5.08"/>
        <path class="st0" d="M143.17,64.73h-4.03c-1.56,0-2.72-.11-3.47-.34-.75-.23-1.43-.67-2.02-1.31.13-.73.2-1.42.2-2.1v-11.82h-5.65v10.93c0,1.4-.38,2.52-1.15,3.37-.77.85-1.69,1.27-2.76,1.27h-3.63s-.03,0-.05,0c-.03,0-.04,0-.07,0-2.23,0-3.99-.11-5.28-.32,1.29-1.07,2.31-2.29,3.06-3.65.75-1.36,1.13-2.69,1.13-4.01,0-1.42-.5-2.78-1.51-4.07-1.01-1.29-2.36-2.33-4.05-3.13-1.69-.79-3.51-1.19-5.44-1.19-1.61,0-3.2.22-4.76.67-1.56.44-3.37,1.11-5.44,2l-1.25,5.24c2.18,3.6,4.03,6.29,5.56,8.07-1.59.27-3.89.4-6.9.4,0,0,0,0-.01,0-.01,0-.02,0-.03,0h-.81c-1.02,0-1.79-.29-2.32-.87-.52-.58-.79-1.57-.79-2.96v-22.22h-5.65v23.11c0,2.37.6,4.25,1.81,5.67,1.21,1.41,2.96,2.12,5.24,2.12h2.5s.02,0,.03,0c0,0,0,0,.01,0,5.05,0,9.54-.5,13.47-1.49,3.31.99,7.11,1.49,11.41,1.49.03,0,.05,0,.07,0,.02,0,.03,0,.05,0h5.32c1.29,0,2.47-.27,3.53-.81,1.06-.54,1.94-1.29,2.64-2.26.91,1.13,1.88,1.92,2.9,2.36,1.02.44,2.38.68,4.07.71h9.64v-30.89h-5.6v26.05ZM112.26,61.18c-1.04,1.08-2.27,1.96-3.69,2.66-1.18-1.07-2.37-2.4-3.55-3.97-1.18-1.57-2.14-3.07-2.86-4.5,2.34-1.05,4.33-1.57,5.97-1.57s2.93.36,4.03,1.07c1.1.71,1.65,1.67,1.65,2.88s-.52,2.35-1.55,3.43Z"/>
        <rect class="st0" x="155.63" y="38.68" width="5.65" height="30.89"/>
        <rect class="st0" x="178.9" y="41.06" width="5.81" height="5.08"/>
        <rect class="st0" x="186.97" y="41.06" width="5.81" height="5.08"/>
        <rect class="st0" x="213.02" y="73.12" width="5.81" height="5.08"/>
        <rect class="st0" x="204.95" y="73.12" width="5.81" height="5.08"/>
        <rect class="st0" x="278.35" y="73.12" width="5.81" height="5.08"/>
        <path class="st0" d="M302.34,64.73h-4.03c-.89,0-1.78-.27-2.68-.81-.9-.54-1.53-1.28-1.88-2.22l-2.18-5.56c-.83-2.15-2.2-3.85-4.09-5.1-1.9-1.25-4.12-1.88-6.67-1.88-2.69,0-5.2.62-7.54,1.86l2.06,4.6c1.4-.67,2.94-1.01,4.64-1.01,1.53,0,2.85.36,3.95,1.07,1.1.71,1.92,1.73,2.46,3.04l1.85,4.48c-1.61.62-3.23,1.03-4.86,1.23-1.63.2-3.46.3-5.5.3h-7.14c-1.59,0-2.8-.39-3.63-1.17.48-1.21.73-2.58.73-4.11,0-1.94-.46-3.69-1.37-5.26-.91-1.57-2.2-2.8-3.85-3.69-1.65-.89-3.57-1.33-5.75-1.33-1.85,0-4.53.27-8.02.81v14.76h-2.42s-.03,0-.05,0c-.03,0-.04,0-.07,0-2.23,0-3.99-.11-5.28-.32,1.29-1.07,2.31-2.29,3.06-3.65.75-1.36,1.13-2.69,1.13-4.01,0-1.42-.5-2.78-1.51-4.07-1.01-1.29-2.36-2.33-4.05-3.13-1.69-.79-3.51-1.19-5.44-1.19-1.61,0-3.2.22-4.76.67-1.56.44-3.37,1.11-5.44,2l-1.25,5.24c2.18,3.6,4.03,6.29,5.56,8.07-1.59.27-3.89.4-6.9.4,0,0,0,0-.01,0-.01,0-.02,0-.03,0-1.56,0-2.72-.11-3.47-.34-.75-.23-1.43-.67-2.02-1.31.13-.73.2-1.42.2-2.1v-11.82h-5.65v10.93c0,1.4-.38,2.52-1.15,3.37-.77.85-1.69,1.27-2.76,1.27h-9.68c-1.02,0-1.79-.29-2.32-.87-.52-.58-.79-1.57-.79-2.96l.04-10.93c-3.5-.54-6.17-.81-8.02-.81-2.18,0-4.09.44-5.75,1.33-1.65.89-2.94,2.12-3.85,3.69-.91,1.57-1.37,3.33-1.37,5.26s.43,3.79,1.29,5.32c.86,1.53,2.04,2.72,3.55,3.55,1.51.83,3.19,1.25,5.04,1.25h.81l2.18-4.84h-2.1c-1.59,0-2.8-.46-3.65-1.39-.85-.93-1.27-2.2-1.27-3.81,0-3.68,1.64-5.52,4.92-5.52.75,0,1.6.09,2.54.28v7.5c0,2.39.6,4.29,1.81,5.69,1.21,1.4,2.96,2.1,5.24,2.1h13.07c1.29,0,2.47-.27,3.53-.81,1.06-.54,1.94-1.29,2.64-2.26.91,1.13,1.88,1.92,2.9,2.36,1.02.44,2.38.68,4.07.71.01,0,.02,0,.03,0,0,0,0,0,.01,0,5.05,0,9.54-.5,13.47-1.49,3.31.99,7.11,1.49,11.41,1.49.03,0,.05,0,.07,0,.02,0,.03,0,.05,0h11.61c2.74,0,5.04-.89,6.9-2.66.83.89,1.78,1.55,2.84,2,1.06.44,2.05.67,2.96.67h7.14c2.04,0,4.15-.25,6.33-.75,2.18-.5,4.14-1.22,5.89-2.16,1.75,1.94,4.49,2.9,8.23,2.9h9.64v-30.89h-5.6v26.05ZM238,61.18c-1.04,1.08-2.27,1.96-3.69,2.66-1.18-1.07-2.37-2.4-3.55-3.97-1.18-1.57-2.14-3.07-2.86-4.5,2.34-1.05,4.33-1.57,5.97-1.57s2.93.36,4.03,1.07c1.1.71,1.65,1.67,1.65,2.88s-.52,2.35-1.55,3.43ZM260.7,63.34c-.85.93-2.06,1.39-3.65,1.39h-2.58v-10.44c.89-.19,1.75-.28,2.58-.28,3.28,0,4.92,1.84,4.92,5.52,0,1.61-.42,2.88-1.27,3.81Z"/>
        <rect class="st0" x="314.8" y="38.68" width="5.65" height="30.89"/>
      </g>
      <g>
        <rect class="st0" x="15.62" y="122.43" width="5.81" height="5.08"/>
        <rect class="st0" x="7.55" y="122.43" width="5.81" height="5.08"/>
        <path class="st0" d="M117.12,114.04h-2.5c-1.37,0-2.62-.3-3.75-.89-1.13-.59-1.73-1.46-1.81-2.62v-11.65h-5.65v10.53c0,1.4-.38,2.52-1.15,3.37-.77.85-1.69,1.27-2.76,1.27h-2.5v-15.16h-5.65v15.16h-4.03c-1.59,0-2.75-.11-3.49-.34-.74-.23-1.42-.68-2.04-1.35.16-.86.24-1.55.24-2.06v-13.11h-5.65v12.22c0,1.56-.35,2.72-1.05,3.49-.7.77-1.59,1.15-2.66,1.15s-2.1-.32-3-.95c-.9-.63-1.35-1.55-1.35-2.76v-11.45h-5.65v10.53c0,1.4-.38,2.52-1.15,3.37-.77.85-1.69,1.27-2.76,1.27h-2.5v-15.16h-5.65v15.16h-10.08c-1.02,0-1.79-.29-2.32-.87-.52-.58-.79-1.57-.79-2.96v-16.17h-8.67c-3.41,0-5.91.89-7.5,2.68-1.59,1.79-2.38,4.03-2.38,6.71v10.61h-7.18c-3.95,0-5.93-1.8-5.93-5.4v-9.76H.13v10.65c0,2.69.79,4.92,2.38,6.69,1.59,1.77,4.09,2.66,7.5,2.66h14.52v-14.56c0-3.63,1.98-5.44,5.93-5.44h1.33v12.22c0,2.37.6,4.25,1.81,5.67,1.21,1.41,2.96,2.12,5.24,2.12h21.62c2.42,0,4.38-.9,5.89-2.7.75.89,1.67,1.56,2.76,2.02,1.09.46,2.55.69,4.38.69,1.4,0,2.68-.28,3.85-.85,1.17-.56,2.13-1.34,2.88-2.34.94,1.18,1.93,2,2.96,2.46,1.03.46,2.41.7,4.13.73h13.87c2.42,0,4.37-.89,5.85-2.66,1.51,1.77,3.7,2.66,6.57,2.66h9.15v-21.7h-5.65v16.86Z"/>
        <path class="st0" d="M132.22,99.81c-1.65.89-2.94,2.12-3.85,3.69-.91,1.57-1.37,3.33-1.37,5.26s.42,3.79,1.27,5.32c.85,1.53,2.02,2.72,3.51,3.55,1.49.83,3.17,1.25,5.02,1.25h.56l2.18-4.84h-1.77c-1.59,0-2.8-.46-3.65-1.39-.85-.93-1.27-2.2-1.27-3.81,0-3.68,1.64-5.52,4.92-5.52.78,0,1.64.09,2.58.28v13.91c0,1.32-.26,2.36-.77,3.13-.51.77-1.26,1.34-2.24,1.73-.98.39-2.31.69-3.97.91l2.26,5.04c2.2-.35,4.05-.89,5.55-1.63,1.49-.74,2.67-1.86,3.53-3.37.86-1.51,1.29-3.51,1.29-6.01v-18.03c-3.5-.54-6.17-.81-8.02-.81-2.18,0-4.09.44-5.75,1.33Z"/>
        <path class="st0" d="M143.17,92.71h-4.64c-.22-.3-.32-.69-.32-1.17s.13-.86.38-1.13c.25-.27.58-.4.99-.4.3,0,.67.08,1.13.24l1.01-3.07c-.89-.27-1.72-.4-2.5-.4-1.4,0-2.51.39-3.33,1.17-.82.78-1.23,1.83-1.23,3.15,0,.54.13,1.08.4,1.61h-1.98l-.73,3.43h10.81v-3.43Z"/>
        <path class="st0" d="M182.21,114.04h-4.03c-1.59,0-2.8-.39-3.63-1.17.48-1.21.73-2.58.73-4.11,0-1.94-.46-3.69-1.37-5.26-.91-1.57-2.2-2.8-3.85-3.69-1.65-.89-3.57-1.33-5.75-1.33-1.85,0-4.53.27-8.02.81v14.76h-7.66c-.16,0-.27.05-.32.14-.05.09-.08.18-.08.26v4.03c0,.08.03.17.08.26.05.09.16.14.32.14h16.86c2.74,0,5.04-.89,6.9-2.66.83.89,1.78,1.55,2.84,2,1.06.44,2.05.67,2.96.67h9.64v-30.89h-5.6v26.05ZM168.15,112.65c-.85.93-2.06,1.39-3.65,1.39h-2.58v-10.44c.89-.19,1.75-.28,2.58-.28,3.28,0,4.92,1.84,4.92,5.52,0,1.61-.42,2.88-1.27,3.81Z"/>
        <rect class="st0" x="194.67" y="87.99" width="5.65" height="30.89"/>
        <rect class="st0" x="216.65" y="90.37" width="5.81" height="5.08"/>
        <rect class="st0" x="237.58" y="122.43" width="5.81" height="5.08"/>
        <rect class="st0" x="245.64" y="122.43" width="5.81" height="5.08"/>
        <rect class="st0" x="281.65" y="90.37" width="5.81" height="5.08"/>
        <rect class="st0" x="289.72" y="90.37" width="5.81" height="5.08"/>
        <path class="st0" d="M314.84,87.99v26.05h-4.03c-1.8,0-3.11-.5-3.91-1.49.16-.73.24-1.48.24-2.26v-22.3h-5.65v21.41c0,1.4-.38,2.52-1.15,3.37-.77.85-1.69,1.27-2.76,1.27h-.81c-1.56,0-2.72-.11-3.47-.34-.75-.23-1.43-.67-2.02-1.31.13-.73.2-1.42.2-2.1v-11.82h-5.65v10.93c0,1.4-.38,2.52-1.15,3.37-.77.85-1.69,1.27-2.76,1.27h-3.63c-1.59,0-2.8-.39-3.63-1.17.48-1.21.73-2.58.73-4.11,0-1.94-.46-3.69-1.37-5.26-.91-1.57-2.2-2.8-3.85-3.69-1.65-.89-3.57-1.33-5.75-1.33-1.85,0-4.53.27-8.02.81v14.76h-2.42c-1.56,0-2.72-.11-3.47-.34-.75-.23-1.43-.67-2.02-1.31.13-.73.2-1.42.2-2.1v-11.82h-5.65v10.93c0,1.4-.38,2.52-1.15,3.37-.77.85-1.69,1.27-2.76,1.27h-12.66c-1.86,0-3.21-.58-4.07-1.73v-13.43h-5.65v18.95c0,1.32-.19,2.35-.56,3.08-.38.74-.94,1.27-1.69,1.59-.75.32-1.79.58-3.11.77l2.26,5.04c2.58-.3,4.68-1.27,6.31-2.92,1.63-1.65,2.44-4.23,2.44-7.72v-.04c.77.46,1.52.78,2.26.98.01.04.01.08.04.13.05.09.16.14.32.14h15.81c1.29,0,2.47-.27,3.53-.81,1.06-.54,1.94-1.29,2.64-2.26.91,1.13,1.88,1.92,2.9,2.36,1.02.44,2.38.68,4.07.71h11.61c2.74,0,5.04-.89,6.9-2.66.83.89,1.78,1.55,2.84,2,1.06.44,2.05.67,2.96.67h5.32c1.29,0,2.47-.27,3.53-.81,1.06-.54,1.94-1.29,2.64-2.26.91,1.13,1.88,1.92,2.9,2.36,1.02.44,2.38.68,4.07.71h2.5c2.42,0,4.36-.86,5.81-2.58.83.86,1.77,1.51,2.82,1.94,1.05.43,2.02.65,2.9.65h9.64v-30.89h-5.6ZM268.29,112.65c-.85.93-2.06,1.39-3.65,1.39h-2.58v-10.44c.89-.19,1.75-.28,2.58-.28,3.28,0,4.92,1.84,4.92,5.52,0,1.61-.42,2.88-1.27,3.81Z"/>
      </g>
    </g>
  </g>
  <g>
    <polygon class="st0" points="380.89 117.68 350.28 96.47 350.28 124.64 380.71 145.73 380.83 145.89 380.89 145.85 380.95 145.89 381.06 145.73 495.86 66.18 495.86 38 380.89 117.68"/>
    <path class="st0" d="M380.89,155.66l-30.61-21.21v28.17l30.44,21.09.09.06-.09-.06.11.17.06-.04h0s.06.04.06.04l.12-.17,71.35-49.44v37.97l43.44-30.11v-37.97h0v-28.18l-114.98,79.67M458.94,129.75h.01s30.35-21.04,30.35-21.04l.03-.02v9.8l-.04.03-30.36,21.04v-9.8Z"/>
    <polygon class="st0" points="495.86 0 452.41 30.1 452.41 58.29 495.86 28.17 495.86 0"/>
  </g>
</svg>